<svg width="128" height="128" viewBox="0 0 128 128" fill="none" xmlns="http://www.w3.org/2000/svg" role="img" aria-labelledby="title desc">
  <title id="title">ProjectFlow icon</title>
  <desc id="desc">A black outline box with a tall dark F in front, transitioning through layered offset contours into a lighter P behind it.</desc>
  <rect x="14" y="14" width="100" height="100" rx="8" stroke="currentColor" stroke-width="7"/>
  <g stroke="currentColor" fill="none" stroke-linejoin="miter" stroke-linecap="square">
    <path d="M58 94V33H85C96 33 104 41 104 52C104 63 96 71 85 71H70V94" stroke-width="0.78" opacity="0.07"/>
    <path d="M53 94V33H82C93 33 101 41 101 52C101 63 93 71 82 71H67V94" stroke-width="0.9" opacity="0.12"/>
    <path d="M48 94V33H79C90 33 98 41 98 52C98 63 90 71 79 71H62V94" stroke-width="1" opacity="0.18"/>
    <path d="M45 94V33H80V47H59V60H76V72H59V94H45Z" stroke-width="1.05" opacity="0.31"/>
    <path d="M42 94V33H79V47H57V60H73V72H57V94H42Z" stroke-width="1.25" opacity="0.53"/>
    <path d="M39 94V33H78V47H56V60H72V72H56V94H39Z" stroke-width="2.3"/>
  </g>
</svg>
